<?xml version="1.0" encoding="utf-8"?>
<!-- Generator: Adobe Illustrator 16.0.0, SVG Export Plug-In . SVG Version: 6.00 Build 0)  -->
<!DOCTYPE svg PUBLIC "-//W3C//DTD SVG 1.1//EN" "http://www.w3.org/Graphics/SVG/1.1/DTD/svg11.dtd">
<svg version="1.1" xmlns="http://www.w3.org/2000/svg" xmlns:xlink="http://www.w3.org/1999/xlink" x="0px" y="0px" width="60px"
	 height="60px" viewBox="0 0 60 60" enable-background="new 0 0 60 60" xml:space="preserve">
<g id="_x3C_背景_x3E__xA0_0_xA0_影像_1_" display="none">
	
		<image display="inline" overflow="visible" width="60" height="60" id="_x3C_背景_x3E__xA0_0_xA0_影像" xlink:href="F0162B19.jpg" >
	</image>
</g>
<g id="形狀_2_1_" display="none" enable-background="new    ">
	<g id="形狀_2" display="inline">
		<g>
			<path fill="#FFFFFF" d="M51.162,36.991c-0.469,0.517-2.828,3.211-2.926,3.211c0-0.371,2.312-3.211,2.312-3.582
				c0-0.193-0.663-0.903-1.114-0.903c-0.113,0-0.291,0.178-0.502,0.484c0.146-0.92,0.049-1.774-0.775-1.774
				c-0.482,0-2.225,1.052-3.342,2.641c-0.135-0.096-0.288-0.139-0.344-0.076c-0.695,0.742-5.155,5.905-5.688,5.905
				c-0.017,0-0.081-0.033-0.081-0.13c0-2.823,3.055-6.727,5.317-9.309c0.889,0.097,1.616,0.162,1.681,0.162
				c0.227,0,0.307-0.274,0.307-0.436c0-0.13-0.533-0.323-1.244-0.549c0.97-1.081,1.682-1.791,1.682-1.871
				c0-0.274-0.275-1.21-0.857-1.21c-0.291,0-1.486,0.983-2.893,2.532c-0.744-0.193-1.325-0.322-1.325-0.322
				c-0.712,0-0.856,0.678-0.856,1.032c0,0.129,0.533,0.258,1.244,0.371c-2.102,2.565-4.283,6.099-4.283,9.18
				c0,1.21,0.68,1.484,1.244,1.484c0.775,0,3.707-3.25,5.268-5.051c-0.091,0.339-0.144,0.689-0.144,1.05
				c0,0.79,0.565,1.113,0.89,1.113c0.581,0,1.713-0.742,2.473-1.388c-0.082,0.21-0.13,0.371-0.13,0.436
				c0,0.339,0.679,1.258,0.872,1.258c0.68,0,3.314-3.146,3.572-3.468C51.824,37.427,51.291,36.83,51.162,36.991z M47.525,38.089
				c-0.613,0.693-1.6,1.71-2.101,1.71c-0.403,0,1.956-3.501,2.78-3.501C48.463,36.298,47.85,37.476,47.525,38.089z M30,6
				C16.745,6,6,16.745,6,30s10.745,24,24,24s24-10.745,24-24S43.255,6,30,6z M18.067,10.287C21.548,8.176,25.632,6.96,30,6.96
				c5.955,0,11.383,2.26,15.473,5.969c-1.564-0.957-3.761-1.279-6.475,0.362c-0.394-1.848-1.572-2.202-2.883-2.202
				c-1.985,0-8.398,7.422-13.167,17.603C14.487,22.683,17.227,12.736,18.067,10.287z M28.522,29.553
				c-0.186,0.018-1.134,0.069-1.313,0.075c-0.08-0.109,0.116-0.388,0.116-0.388c4.125-9.844,9.082-12.529,11.047-13.787
				c2.228-1.022,5.302-0.614,5.638,0.618C45.188,19.039,36.255,29.137,28.522,29.553z M12.649,44.179
				c-0.218,0-0.358,0.202-0.41,0.497C8.942,40.69,6.96,35.577,6.96,30c0-6.491,2.688-12.351,7.007-16.538
				c-1.544,10.822,5.138,15.214,7.667,17.099c0.022,0.017,0.045,0.03,0.068,0.046c-0.999,1.575-1.998,3.243-2.981,5.002
				C16.056,40.404,13.479,44.179,12.649,44.179z M30,53.04c-5.965,0-11.4-2.267-15.492-5.986
				c2.606-0.688,8.124-11.756,10.197-14.079c0.48,6.408,2.271,14.31,6.377,14.31c2.795,0,5.285-3.577,4.498-3.813
				c-5.852-1.887-7.643-7.587-8.124-11.557c9.445,1.633,21.114-8.41,20.721-15.298c-0.02-0.342-0.188-0.839-0.491-1.378
				C51.027,19.236,53.04,24.382,53.04,30C53.04,42.725,42.725,53.04,30,53.04z M38.652,32.313c0-0.273-0.743-1.145-1.082-1.145
				c-0.34,0-1.358,1.646-1.358,2.161c0,0.242,0.534,0.646,0.89,0.646S38.652,32.587,38.652,32.313z M36.406,36.991
				c-1.746,1.92-3.248,3.937-3.248,3.872c0-2.194,3.41-5.114,3.41-5.518c0-0.387-0.566-1.178-1.035-1.178
				c-0.21,0-3.41,3.55-3.41,6.034c0,1.21,0.792,1.484,0.953,1.484c0.162,0,0.227-0.033,0.26-0.065
				c0.048-0.048,3.184-3.549,3.426-3.839C37.068,37.427,36.535,36.847,36.406,36.991z"/>
		</g>
	</g>
</g>
<g id="形狀_2_拷貝_2" enable-background="new    ">
	<g id="形狀_2_6_">
		<g>
			<path fill="#FFFFFF" d="M51.162,36.991c-0.469,0.517-2.828,3.211-2.926,3.211c0-0.371,2.312-3.211,2.312-3.582
				c0-0.193-0.663-0.903-1.114-0.903c-0.113,0-0.291,0.178-0.502,0.484c0.146-0.92,0.049-1.774-0.775-1.774
				c-0.482,0-2.225,1.052-3.342,2.641c-0.135-0.096-0.288-0.139-0.344-0.076c-0.695,0.742-5.155,5.905-5.688,5.905
				c-0.017,0-0.081-0.033-0.081-0.13c0-2.823,3.055-6.727,5.317-9.309c0.889,0.097,1.616,0.162,1.681,0.162
				c0.227,0,0.307-0.274,0.307-0.436c0-0.13-0.533-0.323-1.244-0.549c0.97-1.081,1.682-1.791,1.682-1.871
				c0-0.274-0.275-1.21-0.857-1.21c-0.291,0-1.486,0.983-2.893,2.532c-0.744-0.193-1.325-0.322-1.325-0.322
				c-0.712,0-0.856,0.678-0.856,1.032c0,0.129,0.533,0.258,1.244,0.371c-2.102,2.565-4.283,6.099-4.283,9.18
				c0,1.21,0.68,1.484,1.244,1.484c0.775,0,3.707-3.25,5.268-5.051c-0.091,0.339-0.144,0.689-0.144,1.05
				c0,0.79,0.565,1.113,0.89,1.113c0.581,0,1.713-0.742,2.473-1.388c-0.082,0.21-0.13,0.371-0.13,0.436
				c0,0.339,0.679,1.258,0.872,1.258c0.68,0,3.314-3.146,3.572-3.468C51.824,37.427,51.291,36.83,51.162,36.991z M47.525,38.089
				c-0.613,0.693-1.6,1.71-2.101,1.71c-0.403,0,1.956-3.501,2.78-3.501C48.463,36.298,47.85,37.476,47.525,38.089z M30,6
				C16.745,6,6,16.745,6,30s10.745,24,24,24s24-10.745,24-24S43.255,6,30,6z M18.067,10.287C21.548,8.176,25.632,6.96,30,6.96
				c5.955,0,11.383,2.26,15.473,5.969c-1.564-0.957-3.761-1.279-6.475,0.362c-0.394-1.848-1.572-2.202-2.883-2.202
				c-1.985,0-8.398,7.422-13.167,17.603C14.487,22.683,17.227,12.736,18.067,10.287z M28.522,29.553
				c-0.186,0.018-1.134,0.069-1.313,0.075c-0.08-0.109,0.116-0.388,0.116-0.388c4.125-9.844,9.082-12.529,11.047-13.787
				c2.228-1.022,5.302-0.614,5.638,0.618C45.188,19.039,36.255,29.137,28.522,29.553z M12.649,44.179
				c-0.218,0-0.358,0.202-0.41,0.497C8.942,40.69,6.96,35.577,6.96,30c0-6.491,2.688-12.351,7.007-16.538
				c-1.544,10.822,5.138,15.214,7.667,17.099c0.022,0.017,0.045,0.03,0.068,0.046c-0.999,1.575-1.998,3.243-2.981,5.002
				C16.056,40.404,13.479,44.179,12.649,44.179z M30,53.04c-5.965,0-11.4-2.267-15.492-5.986
				c2.606-0.688,8.124-11.756,10.197-14.079c0.48,6.408,2.271,14.31,6.377,14.31c2.795,0,5.285-3.577,4.498-3.813
				c-5.852-1.887-7.643-7.587-8.124-11.557c9.445,1.633,21.114-8.41,20.721-15.298c-0.02-0.342-0.188-0.839-0.491-1.378
				C51.027,19.236,53.04,24.382,53.04,30C53.04,42.725,42.725,53.04,30,53.04z M38.652,32.313c0-0.273-0.743-1.145-1.082-1.145
				c-0.34,0-1.358,1.646-1.358,2.161c0,0.242,0.534,0.646,0.89,0.646S38.652,32.587,38.652,32.313z M36.406,36.991
				c-1.746,1.92-3.248,3.937-3.248,3.872c0-2.194,3.41-5.114,3.41-5.518c0-0.387-0.566-1.178-1.035-1.178
				c-0.21,0-3.41,3.55-3.41,6.034c0,1.21,0.792,1.484,0.953,1.484c0.162,0,0.227-0.033,0.26-0.065
				c0.048-0.048,3.184-3.549,3.426-3.839C37.068,37.427,36.535,36.847,36.406,36.991z"/>
		</g>
	</g>
</g>
<g id="圖層_4" display="none">
	
		<text transform="matrix(1 0 0 1 -43.1245 14.7129)" display="inline" fill="#FFFFFF" font-family="'MekarScriptfree'" font-size="12">R</text>
	<text transform="matrix(1 0 0 1 -153.5 -161.5)" fill="#FFFFFF" font-family="'MekarScriptfree'" font-size="48">R</text>
	
		<text transform="matrix(1.15 0 0 1 10.75 40.375)" opacity="0.9" fill="#FFFFFF" stroke="#FFFDFD" stroke-linejoin="bevel" stroke-miterlimit="10" font-family="'MekarScriptfree'" font-size="36">R</text>
	<g display="inline">
		<path fill="#FFFFFF" d="M30,6C16.745,6,6,16.745,6,30s10.745,24,24,24s24-10.745,24-24S43.255,6,30,6z M30,52
			C17.85,52,8,42.15,8,30S17.85,8,30,8c12.149,0,22,9.849,22,22S42.149,52,30,52z"/>
		<path fill="#FFFFFF" d="M49.938,42.696c-15.882-0.036-30.122-7.413-33.286-20.622c-0.871-3.637-0.784-9.19,0.018-10.637
			c-0.238,0.063-2.167,1.002-2.936,1.554c-0.695,0.588-1.636,8.708-0.541,13.281c2.828,11.806,15.419,20.586,28.871,23.291
			C46.021,47.782,48.313,44.277,49.938,42.696z"/>
		<path fill="#FFFFFF" d="M36.637,8.283c-5.92-3.298-13.86-0.334-17.736,6.623c-3.876,6.956-2.218,15.268,3.703,18.566
			c5.921,3.298,13.861,0.333,17.735-6.623C44.215,19.893,42.558,11.581,36.637,8.283z M21.544,29.362
			c-3.875-2.767-4.052-9.16-0.395-14.28c3.656-5.119,9.76-7.028,13.632-4.262c3.875,2.767,4.052,9.159,0.396,14.278
			C31.523,30.22,25.417,32.129,21.544,29.362z"/>
		<path fill="#FFFFFF" d="M15.814,24.982c2.054,1.219,1.458,2.743,1.019,5.268c-0.333,1.916-2.333,5.25-6,6.083
			c-2.028,0.461-3.167-0.083-3.807-0.684c1.255,2.387,2.255,6.767,5.14,6.767c4.143,0,9-6.107,9-10.25
			C21.167,28.771,18.91,25.906,15.814,24.982z"/>
	</g>
	<path fill="#FFFFFF" d="M-66.667-68.667c-13.255,0-24,10.745-24,24s10.745,24,24,24s24-10.745,24-24S-53.412-68.667-66.667-68.667z
		 M-61.885-63.846c3.875,2.767,4.052,9.159,0.396,14.278c-3.654,5.122-9.76,7.03-13.634,4.263c-3.875-2.767-4.052-9.16-0.395-14.28
		C-71.861-64.704-65.757-66.612-61.885-63.846z M-80.399-61.848c2.616-2.094,5.719-3.604,9.114-4.329
		c-2.568,1.35-4.875,3.533-6.48,6.415c-1.403,2.518-2.071,5.212-2.084,7.784c-0.055-0.205-0.116-0.407-0.166-0.614
		C-80.706-55.476-80.792-59.557-80.399-61.848z M-87.695-38.186c-0.631-2.049-0.972-4.225-0.972-6.481
		c0-5.299,1.874-10.16,4.995-13.957c-0.369,2.928-0.504,7.301,0.197,10.229c0.541,2.256,1.439,4.4,2.631,6.414
		c-0.981,1.555-2.642,3.114-4.989,3.647C-86.564-38.167-87.176-38.135-87.695-38.186z M-66.667-22.667
		c-7.558,0-14.224-3.813-18.185-9.618c0.115,0.015,0.229,0.034,0.352,0.034c2.546,0,5.358-2.309,7.15-5.049
		c5.271,5.756,13.076,9.956,21.33,11.885C-59.175-23.665-62.804-22.667-66.667-22.667z M-72.562-40.522
		c5.701,2.096,12.678-0.911,16.234-7.295c3.377-6.061,2.551-13.15-1.635-17.056c7.82,3.373,13.296,11.149,13.296,20.207
		c0,4.71-1.485,9.071-4.006,12.65C-58.009-32.394-66.626-35.333-72.562-40.522z"/>
	<path fill="#FFFFFF" d="M29.834,5.854c-13.255,0-24,10.745-24,24s10.745,24.001,24,24.001s24-10.746,24-24.001
		S43.089,5.854,29.834,5.854z M32.563,11.25c5.76,1.888,4.218,5.006,0.563,10.125c-3.654,5.122-10,9.375-12.813,6.938
		c-2.546-2.207-1.501-6.997,1.313-12.625C23.688,11.563,29.625,5.625,32.563,11.25z M16.101,12.673
		c2.617-2.094,5.72-3.604,9.115-4.329c-2.568,1.35-4.875,3.533-6.48,6.415c-1.404,2.518-2.072,5.212-2.084,7.784
		c-0.056-0.205-0.116-0.407-0.166-0.614C15.795,19.045,15.708,14.964,16.101,12.673z M8.75,36.313
		c-0.631-2.049-0.916-4.201-0.916-6.458c0-5.299,1.874-10.16,4.995-13.957c-0.369,2.928-0.504,7.301,0.197,10.229
		c0.54,2.256,1.411,4.311,2.161,5.561C13.875,34.313,11.125,36.438,8.75,36.313z M29.834,51.855c-7.558,0-15.084-4.48-19.271-10.668
		c0.115,0.016,4.563-3.313,6-6.625c5.271,5.756,15.664,12.615,23.918,14.545C37.325,50.855,33.696,51.855,29.834,51.855z
		 M19.438,32.563c6.375,0,14.125-2.813,18.5-10.313c3.496-5.993,3.438-10.188,0.601-12.603c7.82,3.373,13.296,11.149,13.296,20.207
		c0,4.71-1.485,9.071-4.007,12.651C38.491,42.127,26.375,39,19.438,32.563z"/>
	
		<text transform="matrix(1 0 0 0.95 28.6875 40.375)" fill="#FFFEFE" font-family="'MekarScriptfree'" font-size="20" letter-spacing="2">ita</text>
</g>
</svg>
